<svg width="16" height="16" viewBox="0 0 16 16" fill="none" xmlns="http://www.w3.org/2000/svg">
<path fill-rule="evenodd" clip-rule="evenodd" d="M13.7772 6.60156H1.89453C1.61853 6.60156 1.39453 6.37756 1.39453 6.10156C1.39453 5.82556 1.61853 5.60156 1.89453 5.60156H13.7772C14.0532 5.60156 14.2772 5.82556 14.2772 6.10156C14.2772 6.37756 14.0532 6.60156 13.7772 6.60156Z" fill="#111827" fill-opacity="0.7"/>
<path fill-rule="evenodd" clip-rule="evenodd" d="M10.8005 9.20312C10.5245 9.20312 10.2979 8.97913 10.2979 8.70312C10.2979 8.42713 10.5185 8.20312 10.7945 8.20312H10.8005C11.0765 8.20312 11.3005 8.42713 11.3005 8.70312C11.3005 8.97913 11.0765 9.20312 10.8005 9.20312Z" fill="#111827" fill-opacity="0.7"/>
<path fill-rule="evenodd" clip-rule="evenodd" d="M7.84251 9.20312C7.56651 9.20312 7.33984 8.97913 7.33984 8.70312C7.33984 8.42713 7.56051 8.20312 7.83651 8.20312H7.84251C8.11851 8.20312 8.34251 8.42713 8.34251 8.70312C8.34251 8.97913 8.11851 9.20312 7.84251 9.20312Z" fill="#111827" fill-opacity="0.7"/>
<path fill-rule="evenodd" clip-rule="evenodd" d="M4.87833 9.20312C4.60233 9.20312 4.375 8.97913 4.375 8.70312C4.375 8.42713 4.59633 8.20312 4.87233 8.20312H4.87833C5.15433 8.20312 5.37833 8.42713 5.37833 8.70312C5.37833 8.97913 5.15433 9.20312 4.87833 9.20312Z" fill="#111827" fill-opacity="0.7"/>
<path fill-rule="evenodd" clip-rule="evenodd" d="M10.8005 11.7969C10.5245 11.7969 10.2979 11.5729 10.2979 11.2969C10.2979 11.0209 10.5185 10.7969 10.7945 10.7969H10.8005C11.0765 10.7969 11.3005 11.0209 11.3005 11.2969C11.3005 11.5729 11.0765 11.7969 10.8005 11.7969Z" fill="#111827" fill-opacity="0.7"/>
<path fill-rule="evenodd" clip-rule="evenodd" d="M7.84251 11.7969C7.56651 11.7969 7.33984 11.5729 7.33984 11.2969C7.33984 11.0209 7.56051 10.7969 7.83651 10.7969H7.84251C8.11851 10.7969 8.34251 11.0209 8.34251 11.2969C8.34251 11.5729 8.11851 11.7969 7.84251 11.7969Z" fill="#111827" fill-opacity="0.7"/>
<path fill-rule="evenodd" clip-rule="evenodd" d="M4.87833 11.7969C4.60233 11.7969 4.375 11.5729 4.375 11.2969C4.375 11.0209 4.59633 10.7969 4.87233 10.7969H4.87833C5.15433 10.7969 5.37833 11.0209 5.37833 11.2969C5.37833 11.5729 5.15433 11.7969 4.87833 11.7969Z" fill="#111827" fill-opacity="0.7"/>
<path fill-rule="evenodd" clip-rule="evenodd" d="M10.5293 3.85806C10.2533 3.85806 10.0293 3.63406 10.0293 3.35806V1.16406C10.0293 0.888063 10.2533 0.664062 10.5293 0.664062C10.8053 0.664062 11.0293 0.888063 11.0293 1.16406V3.35806C11.0293 3.63406 10.8053 3.85806 10.5293 3.85806Z" fill="#111827" fill-opacity="0.7"/>
<path fill-rule="evenodd" clip-rule="evenodd" d="M5.14355 3.85806C4.86755 3.85806 4.64355 3.63406 4.64355 3.35806V1.16406C4.64355 0.888063 4.86755 0.664062 5.14355 0.664062C5.41955 0.664062 5.64355 0.888063 5.64355 1.16406V3.35806C5.64355 3.63406 5.41955 3.85806 5.14355 3.85806Z" fill="#111827" fill-opacity="0.7"/>
<mask id="mask0_3002_63253" style="mask-type:alpha" maskUnits="userSpaceOnUse" x="1" y="1" width="14" height="14">
<path fill-rule="evenodd" clip-rule="evenodd" d="M1.33301 1.71875H14.333V14.9994H1.33301V1.71875Z" fill="white"/>
</mask>
<g mask="url(#mask0_3002_63253)">
<path fill-rule="evenodd" clip-rule="evenodd" d="M5.01367 2.71875C3.28501 2.71875 2.33301 3.64075 2.33301 5.31475V11.3474C2.33301 13.0581 3.28501 13.9994 5.01367 13.9994H10.6523C12.381 13.9994 13.333 13.0754 13.333 11.3981V5.31475C13.3357 4.49142 13.1143 3.85142 12.675 3.41142C12.223 2.95808 11.5263 2.71875 10.6583 2.71875H5.01367ZM10.6523 14.9994H5.01367C2.74367 14.9994 1.33301 13.6001 1.33301 11.3474V5.31475C1.33301 3.09608 2.74367 1.71875 5.01367 1.71875H10.6583C11.7977 1.71875 12.7397 2.06008 13.383 2.70475C14.0077 3.33208 14.3363 4.23408 14.333 5.31608V11.3981C14.333 13.6194 12.9223 14.9994 10.6523 14.9994Z" fill="#111827" fill-opacity="0.7"/>
</g>
</svg>
